:FULLY-SPECIFIED
:FORCE-ALL-JOINTS-BE-3DOF
:DEGREES
275
root 9.97355 16.8782 1.74159 5.82999 -4.04251 2.00683
lfemur -17.4346 6.41344 -28.5392
ltibia 29.5308 -0 0
lfoot -17.4172 6.61743 0.00258104
ltoes -1.04113 0 0
rfemur -25.64 -1.76859 17.5979
rtibia 63.7321 -0 0
rfoot -17.2013 -11.5615 0.00840013
rtoes -16.9656 0 0
lowerback -5.10531 -1.46628 -2.9205
upperback -0.448165 -1.8437 2.08184
thorax 2.56491 -0.963131 3.6537
lowerneck -22.0545 -3.74507 -11.3357
upperneck 21.6628 -4.38746 11.3758
head 11.1911 -1.54122 5.40352
lclavicle 1.15792e-14 -2.19988e-14 0
lhumerus -21.7108 -14.1602 87.3673
lradius 24.0284 -0 0
lwrist 0.393148 0 0
lhand -12.7621 -24.2699 -3.0353e-06
lfingers 7.12502 0 0
lthumb 13.3226 5.28424 -3.02302e-06
rclavicle 1.15792e-14 -2.19988e-14 0
rhumerus -45.578 8.2201 -83.0905
rradius 42.4036 -0 0
rwrist -23.3524 0 0
rhand -29.409 -22.6309 0.000183175
rfingers 7.12502 0 0
rthumb -2.74667 -52.5929 0.000175675
276
root 9.98365 16.8686 1.86508 5.7309 -3.68423 2.05255
lfemur -16.7879 6.22099 -28.5878
ltibia 29.438 -0 0
lfoot -17.7019 6.48757 0.00161314
ltoes -1.06467 0 0
rfemur -26.6739 -1.80681 17.6986
rtibia 63.115 -0 0
rfoot -17.9891 -11.7142 0.00524982
rtoes -17.5856 0 0
lowerback -5.08208 -1.64824 -2.98379
upperback -0.396132 -2.08441 2.11567
thorax 2.62899 -1.08617 3.70617
lowerneck -22.082 -3.70683 -11.2466
upperneck 21.8058 -4.33907 11.2518
head 11.2372 -1.52685 5.35416
lclavicle 1.20761e-14 -1.93484e-14 0
lhumerus -20.7771 -14.138 87.1185
lradius 24.0432 -0 0
lwrist 0.24995 0 0
lhand -12.7668 -24.2605 -1.89706e-06
lfingers 7.12502 0 0
lthumb 13.3181 5.2939 -1.88939e-06
rclavicle 1.20761e-14 -1.93484e-14 0
rhumerus -45.6202 8.30291 -83.0806
rradius 42.4773 -0 0
rwrist -23.5624 0 0
rhand -29.447 -22.6999 0.000114484
rfingers 7.12502 0 0
rthumb -2.78338 -52.6615 0.000109797
277
root 9.99374 16.859 1.98856 5.63214 -3.32586 2.09763
lfemur -16.1414 6.0291 -28.6385
ltibia 29.3452 0 0
lfoot -17.9866 6.35771 0
ltoes -1.08821 0 0
rfemur -27.7079 -1.84321 17.7999
rtibia 62.4978 0 0
rfoot -18.777 -11.8669 0
rtoes -18.2057 0 0
lowerback -5.05864 -1.83017 -3.04716
upperback -0.344233 -2.32516 2.14928
thorax 2.69295 -1.20926 3.7585
lowerneck -22.1094 -3.66855 -11.1574
upperneck 21.9487 -4.29038 11.128
head 11.2832 -1.51244 5.30481
lclavicle 1.25731e-14 -1.66979e-14 0
lhumerus -19.8435 -14.1118 86.8702
lradius 24.0579 0 0
lwrist 0.106751 0 0
lhand -12.7714 -24.2512 0
lfingers 7.12502 0 0
lthumb 13.3136 5.30356 0
rclavicle 1.25731e-14 -1.66979e-14 0
rhumerus -45.6624 8.38572 -83.0708
rradius 42.5509 0 0
rwrist -23.7724 0 0
rhand -29.485 -22.7689 0
rfingers 7.12502 0 0
rthumb -2.82009 -52.73 0
278
root 9.99972 16.8596 2.11115 5.66565 -2.84487 2.16489
lfemur -15.4405 5.78781 -28.6886
ltibia 28.8975 -0 0
lfoot -18.1277 6.23376 0.00076313
ltoes -1.19862 0 0
rfemur -28.638 -1.7951 17.7452
rtibia 61.2898 -0 0
rfoot -19.3458 -11.8751 0.000204348
rtoes -17.7936 0 0
lowerback -5.07986 -2.02622 -3.15603
upperback -0.348894 -2.58091 2.17609
thorax 2.73144 -1.33901 3.82562
lowerneck -22.0282 -3.64629 -11.2307
upperneck 21.9688 -4.26178 11.1951
head 11.2745 -1.50003 5.34831
lclavicle 1.34842e-14 -9.14408e-15 0
lhumerus -19.0966 -14.2796 86.7668
lradius 24.1559 -0 0
lwrist 0.181866 0 0
lhand -13.1915 -24.3402 0.00163248
lfingers 7.12502 0 0
lthumb 12.9085 5.23839 0.00115212
rclavicle 1.34842e-14 -9.14408e-15 0
rhumerus -45.7759 8.37623 -83.037
rradius 42.4735 -0 0
rwrist -23.7008 0 0
rhand -29.422 -23.0849 -0.000869305
rfingers 7.12502 0 0
rthumb -2.75921 -53.0467 -0.000841515
279
root 10.0057 16.8601 2.23374 5.69971 -2.36392 2.23241
lfemur -14.7398 5.54716 -28.7417
ltibia 28.4499 -0 0
lfoot -18.2688 6.10981 0.00122101
ltoes -1.30903 0 0
rfemur -29.5682 -1.74788 17.6897
rtibia 60.0818 -0 0
rfoot -19.9146 -11.8834 0.000326965
rtoes -17.3815 0 0
lowerback -5.10071 -2.22232 -3.26484
upperback -0.353677 -2.83665 2.20293
thorax 2.76978 -1.46881 3.89265
lowerneck -21.947 -3.62393 -11.3039
upperneck 21.9888 -4.2332 11.2623
head 11.2659 -1.48762 5.39182
lclavicle 1.43953e-14 -1.59027e-15 0
lhumerus -18.3489 -14.446 86.6611
lradius 24.2538 -0 0
lwrist 0.256981 0 0
lhand -13.6117 -24.4293 0.00261201
lfingers 7.12502 0 0
lthumb 12.5034 5.17321 0.00184342
rclavicle 1.43953e-14 -1.59027e-15 0
rhumerus -45.8893 8.36681 -83.0031
rradius 42.3962 -0 0
rwrist -23.6291 0 0
rhand -29.3589 -23.4009 -0.0013909
rfingers 7.12502 0 0
rthumb -2.69832 -53.3635 -0.00134643
280
root 10.0117 16.8607 2.35634 5.73433 -1.88302 2.30019
lfemur -14.0391 5.30716 -28.7977
ltibia 28.0022 -0 0
lfoot -18.4099 5.98586 0.00137364
ltoes -1.41944 0 0
rfemur -30.4983 -1.70157 17.6334
rtibia 58.8738 -0 0
rfoot -20.4834 -11.8916 0.000367839
rtoes -16.9694 0 0
lowerback -5.12118 -2.41845 -3.37359
upperback -0.35858 -3.0924 2.22979
thorax 2.80797 -1.59865 3.9596
lowerneck -21.8658 -3.60146 -11.3771
upperneck 22.009 -4.20465 11.3294
head 11.2573 -1.4752 5.43531
lclavicle 1.53064e-14 5.96355e-15 0
lhumerus -17.6003 -14.6111 86.5531
lradius 24.3518 -0 0
lwrist 0.332097 0 0
lhand -14.0318 -24.5184 0.00293852
lfingers 7.12502 0 0
lthumb 12.0983 5.10803 0.00207386
rclavicle 1.53064e-14 5.96355e-15 0
rhumerus -46.0028 8.35746 -82.9693
rradius 42.3188 -0 0
rwrist -23.5575 0 0
rhand -29.2958 -23.7169 -0.00156477
rfingers 7.12502 0 0
rthumb -2.63743 -53.6803 -0.00151474
